<mxfile host="app.diagrams.net" modified="2024-05-18T17:38:53.962Z" agent="Mozilla/5.0 (Windows NT 10.0; Win64; x64) AppleWebKit/537.36 (KHTML, like Gecko) Chrome/125.0.0.0 Safari/537.36" etag="VXWfVHjvrYyRwgUpm2kd" version="24.4.4" type="device">
  <diagram name="Page-1" id="dREeUxgijH0eQZsBWXep">
    <mxGraphModel dx="3859" dy="2013" grid="1" gridSize="10" guides="1" tooltips="1" connect="1" arrows="1" fold="1" page="1" pageScale="1" pageWidth="850" pageHeight="1100" math="0" shadow="0">
      <root>
        <mxCell id="0" />
        <mxCell id="1" parent="0" />
        <mxCell id="-ROIpDWnLUawv1nbcp3--1" value="" style="shape=folder;fontStyle=1;spacingTop=10;tabWidth=40;tabHeight=14;tabPosition=left;html=1;whiteSpace=wrap;" vertex="1" parent="1">
          <mxGeometry x="-260" y="20" width="2070" height="1780" as="geometry" />
        </mxCell>
        <mxCell id="-ROIpDWnLUawv1nbcp3--81" value="" style="shape=folder;fontStyle=1;spacingTop=10;tabWidth=40;tabHeight=14;tabPosition=left;html=1;whiteSpace=wrap;" vertex="1" parent="1">
          <mxGeometry x="-220" y="700.5" width="770" height="1000" as="geometry" />
        </mxCell>
        <mxCell id="-ROIpDWnLUawv1nbcp3--2" value="System" style="html=1;whiteSpace=wrap;" vertex="1" parent="1">
          <mxGeometry x="-220" y="30" width="60" as="geometry" />
        </mxCell>
        <mxCell id="-ROIpDWnLUawv1nbcp3--5" value="" style="shape=folder;fontStyle=1;spacingTop=10;tabWidth=40;tabHeight=14;tabPosition=left;html=1;whiteSpace=wrap;" vertex="1" parent="1">
          <mxGeometry x="820" y="140" width="600" height="1660" as="geometry" />
        </mxCell>
        <mxCell id="-ROIpDWnLUawv1nbcp3--6" value="" style="shape=folder;fontStyle=1;spacingTop=10;tabWidth=40;tabHeight=14;tabPosition=left;html=1;whiteSpace=wrap;" vertex="1" parent="1">
          <mxGeometry x="1430" y="120" width="370" height="1670" as="geometry" />
        </mxCell>
        <mxCell id="-ROIpDWnLUawv1nbcp3--11" value="Server Layer" style="html=1;whiteSpace=wrap;" vertex="1" parent="1">
          <mxGeometry x="820" y="100" width="110" height="50" as="geometry" />
        </mxCell>
        <mxCell id="-ROIpDWnLUawv1nbcp3--12" value="Mobile App layer" style="html=1;whiteSpace=wrap;" vertex="1" parent="1">
          <mxGeometry x="-220" y="90" width="110" height="50" as="geometry" />
        </mxCell>
        <mxCell id="-ROIpDWnLUawv1nbcp3--13" value="DB Layer" style="html=1;whiteSpace=wrap;" vertex="1" parent="1">
          <mxGeometry x="1430" y="80" width="110" height="50" as="geometry" />
        </mxCell>
        <mxCell id="-ROIpDWnLUawv1nbcp3--14" value="" style="shape=folder;fontStyle=1;spacingTop=10;tabWidth=40;tabHeight=14;tabPosition=left;html=1;whiteSpace=wrap;" vertex="1" parent="1">
          <mxGeometry x="-200" y="210" width="380" height="370" as="geometry" />
        </mxCell>
        <mxCell id="-ROIpDWnLUawv1nbcp3--15" value="Registration&lt;div&gt;&lt;br&gt;&lt;/div&gt;" style="html=1;whiteSpace=wrap;" vertex="1" parent="1">
          <mxGeometry x="-200" y="180" width="90" height="50" as="geometry" />
        </mxCell>
        <mxCell id="-ROIpDWnLUawv1nbcp3--16" value="\" style="shape=folder;fontStyle=1;spacingTop=10;tabWidth=40;tabHeight=14;tabPosition=left;html=1;whiteSpace=wrap;" vertex="1" parent="1">
          <mxGeometry x="-180" y="260" width="310" height="90" as="geometry" />
        </mxCell>
        <mxCell id="-ROIpDWnLUawv1nbcp3--17" value="Account number request" style="html=1;whiteSpace=wrap;" vertex="1" parent="1">
          <mxGeometry x="-180" y="260" width="260" height="20" as="geometry" />
        </mxCell>
        <mxCell id="-ROIpDWnLUawv1nbcp3--18" value="\" style="shape=folder;fontStyle=1;spacingTop=10;tabWidth=40;tabHeight=14;tabPosition=left;html=1;whiteSpace=wrap;" vertex="1" parent="1">
          <mxGeometry x="-179" y="410" width="310" height="90" as="geometry" />
        </mxCell>
        <mxCell id="-ROIpDWnLUawv1nbcp3--19" value="Token request" style="html=1;whiteSpace=wrap;" vertex="1" parent="1">
          <mxGeometry x="-180" y="395" width="210" height="30" as="geometry" />
        </mxCell>
        <mxCell id="-ROIpDWnLUawv1nbcp3--21" value="" style="shape=folder;fontStyle=1;spacingTop=10;tabWidth=40;tabHeight=14;tabPosition=left;html=1;whiteSpace=wrap;" vertex="1" parent="1">
          <mxGeometry x="240" y="210" width="150" height="110" as="geometry" />
        </mxCell>
        <mxCell id="-ROIpDWnLUawv1nbcp3--22" value="Login" style="html=1;whiteSpace=wrap;" vertex="1" parent="1">
          <mxGeometry x="240" y="180" width="110" height="50" as="geometry" />
        </mxCell>
        <mxCell id="-ROIpDWnLUawv1nbcp3--23" value="" style="shape=folder;fontStyle=1;spacingTop=10;tabWidth=40;tabHeight=14;tabPosition=left;html=1;whiteSpace=wrap;" vertex="1" parent="1">
          <mxGeometry x="840" y="230" width="560" height="920" as="geometry" />
        </mxCell>
        <mxCell id="-ROIpDWnLUawv1nbcp3--27" value="Server 1" style="html=1;whiteSpace=wrap;" vertex="1" parent="1">
          <mxGeometry x="840" y="190" width="110" height="50" as="geometry" />
        </mxCell>
        <mxCell id="-ROIpDWnLUawv1nbcp3--35" value="" style="shape=folder;fontStyle=1;spacingTop=10;tabWidth=40;tabHeight=14;tabPosition=left;html=1;whiteSpace=wrap;" vertex="1" parent="1">
          <mxGeometry x="860" y="260" width="480" height="250" as="geometry" />
        </mxCell>
        <mxCell id="-ROIpDWnLUawv1nbcp3--36" value="Account manager" style="html=1;whiteSpace=wrap;" vertex="1" parent="1">
          <mxGeometry x="860" y="240" width="110" height="40" as="geometry" />
        </mxCell>
        <mxCell id="-ROIpDWnLUawv1nbcp3--37" value="Authentication" style="shape=folder;fontStyle=1;spacingTop=10;tabWidth=40;tabHeight=14;tabPosition=left;html=1;whiteSpace=wrap;" vertex="1" parent="1">
          <mxGeometry x="880" y="290" width="90" height="50" as="geometry" />
        </mxCell>
        <mxCell id="-ROIpDWnLUawv1nbcp3--38" value="Authorization" style="shape=folder;fontStyle=1;spacingTop=10;tabWidth=40;tabHeight=14;tabPosition=left;html=1;whiteSpace=wrap;" vertex="1" parent="1">
          <mxGeometry x="990" y="290" width="90" height="50" as="geometry" />
        </mxCell>
        <mxCell id="-ROIpDWnLUawv1nbcp3--39" value="Users accounts managment" style="shape=folder;fontStyle=1;spacingTop=10;tabWidth=40;tabHeight=14;tabPosition=left;html=1;whiteSpace=wrap;" vertex="1" parent="1">
          <mxGeometry x="880" y="360" width="90" height="60" as="geometry" />
        </mxCell>
        <mxCell id="-ROIpDWnLUawv1nbcp3--40" value="Token generation&lt;span style=&quot;color: rgba(0, 0, 0, 0); font-family: monospace; font-size: 0px; font-weight: 400; text-align: start; text-wrap: nowrap;&quot;&gt;%3CmxGraphModel%3E%3Croot%3E%3CmxCell%20id%3D%220%22%2F%3E%3CmxCell%20id%3D%221%22%20parent%3D%220%22%2F%3E%3CmxCell%20id%3D%222%22%20value%3D%22Authentication%22%20style%3D%22shape%3Dfolder%3BfontStyle%3D1%3BspacingTop%3D10%3BtabWidth%3D40%3BtabHeight%3D14%3BtabPosition%3Dleft%3Bhtml%3D1%3BwhiteSpace%3Dwrap%3B%22%20vertex%3D%221%22%20parent%3D%221%22%3E%3CmxGeometry%20x%3D%22880%22%20y%3D%22290%22%20width%3D%2290%22%20height%3D%2250%22%20as%3D%22geometry%22%2F%3E%3C%2FmxCell%3E%3C%2Froot%3E%3C%2FmxGraphModel%3E&lt;/span&gt;" style="shape=folder;fontStyle=1;spacingTop=10;tabWidth=40;tabHeight=14;tabPosition=left;html=1;whiteSpace=wrap;" vertex="1" parent="1">
          <mxGeometry x="1010" y="365" width="90" height="60" as="geometry" />
        </mxCell>
        <mxCell id="-ROIpDWnLUawv1nbcp3--41" value="Account number generation" style="shape=folder;fontStyle=1;spacingTop=10;tabWidth=40;tabHeight=14;tabPosition=left;html=1;whiteSpace=wrap;" vertex="1" parent="1">
          <mxGeometry x="880" y="440" width="90" height="50" as="geometry" />
        </mxCell>
        <mxCell id="-ROIpDWnLUawv1nbcp3--42" value="" style="shape=folder;fontStyle=1;spacingTop=10;tabWidth=40;tabHeight=14;tabPosition=left;html=1;whiteSpace=wrap;" vertex="1" parent="1">
          <mxGeometry x="105" y="1330" width="360" height="230" as="geometry" />
        </mxCell>
        <mxCell id="-ROIpDWnLUawv1nbcp3--43" value="Telephone number operations" style="html=1;whiteSpace=wrap;" vertex="1" parent="1">
          <mxGeometry x="105" y="1300" width="110" height="50" as="geometry" />
        </mxCell>
        <mxCell id="-ROIpDWnLUawv1nbcp3--44" value="Send money" style="shape=folder;fontStyle=1;spacingTop=10;tabWidth=40;tabHeight=14;tabPosition=left;html=1;whiteSpace=wrap;" vertex="1" parent="1">
          <mxGeometry x="140" y="1395" width="100" height="89" as="geometry" />
        </mxCell>
        <mxCell id="-ROIpDWnLUawv1nbcp3--46" value="Recieve money" style="shape=folder;fontStyle=1;spacingTop=10;tabWidth=40;tabHeight=14;tabPosition=left;html=1;whiteSpace=wrap;" vertex="1" parent="1">
          <mxGeometry x="291" y="1402.5" width="125" height="85" as="geometry" />
        </mxCell>
        <mxCell id="-ROIpDWnLUawv1nbcp3--53" value="" style="shape=folder;fontStyle=1;spacingTop=10;tabWidth=40;tabHeight=14;tabPosition=left;html=1;whiteSpace=wrap;" vertex="1" parent="1">
          <mxGeometry x="580" y="710" width="170" height="190" as="geometry" />
        </mxCell>
        <mxCell id="-ROIpDWnLUawv1nbcp3--54" value="Request sender" style="html=1;whiteSpace=wrap;" vertex="1" parent="1">
          <mxGeometry x="580" y="680" width="110" height="50" as="geometry" />
        </mxCell>
        <mxCell id="-ROIpDWnLUawv1nbcp3--56" value="" style="shape=folder;fontStyle=1;spacingTop=10;tabWidth=40;tabHeight=14;tabPosition=left;html=1;whiteSpace=wrap;" vertex="1" parent="1">
          <mxGeometry x="870" y="680" width="170" height="190" as="geometry" />
        </mxCell>
        <mxCell id="-ROIpDWnLUawv1nbcp3--57" value="Request reciever" style="html=1;whiteSpace=wrap;" vertex="1" parent="1">
          <mxGeometry x="870" y="650" width="110" height="50" as="geometry" />
        </mxCell>
        <mxCell id="-ROIpDWnLUawv1nbcp3--59" value="" style="shape=folder;fontStyle=1;spacingTop=10;tabWidth=40;tabHeight=14;tabPosition=left;html=1;whiteSpace=wrap;" vertex="1" parent="1">
          <mxGeometry x="1080" y="570" width="190" height="160" as="geometry" />
        </mxCell>
        <mxCell id="-ROIpDWnLUawv1nbcp3--60" value="Security" style="html=1;whiteSpace=wrap;" vertex="1" parent="1">
          <mxGeometry x="1080" y="540" width="110" height="50" as="geometry" />
        </mxCell>
        <mxCell id="-ROIpDWnLUawv1nbcp3--61" value="Unique code generation" style="shape=folder;fontStyle=1;spacingTop=10;tabWidth=40;tabHeight=14;tabPosition=left;html=1;whiteSpace=wrap;" vertex="1" parent="1">
          <mxGeometry x="1100" y="590" width="80" height="60" as="geometry" />
        </mxCell>
        <mxCell id="-ROIpDWnLUawv1nbcp3--62" value="QR generation" style="shape=folder;fontStyle=1;spacingTop=10;tabWidth=40;tabHeight=14;tabPosition=left;html=1;whiteSpace=wrap;" vertex="1" parent="1">
          <mxGeometry x="1180" y="670" width="70" height="50" as="geometry" />
        </mxCell>
        <mxCell id="-ROIpDWnLUawv1nbcp3--67" value="Bank account" style="html=1;whiteSpace=wrap;" vertex="1" parent="1">
          <mxGeometry x="-220" y="660" width="110" height="50" as="geometry" />
        </mxCell>
        <mxCell id="-ROIpDWnLUawv1nbcp3--70" value="" style="shape=folder;fontStyle=1;spacingTop=10;tabWidth=40;tabHeight=14;tabPosition=left;html=1;whiteSpace=wrap;" vertex="1" parent="1">
          <mxGeometry x="-210" y="760" width="390" height="450" as="geometry" />
        </mxCell>
        <mxCell id="-ROIpDWnLUawv1nbcp3--71" value="ATM operations" style="html=1;whiteSpace=wrap;" vertex="1" parent="1">
          <mxGeometry x="-210" y="730" width="110" height="50" as="geometry" />
        </mxCell>
        <mxCell id="-ROIpDWnLUawv1nbcp3--72" value="Add money" style="shape=folder;fontStyle=1;spacingTop=10;tabWidth=40;tabHeight=14;tabPosition=left;html=1;whiteSpace=wrap;" vertex="1" parent="1">
          <mxGeometry x="-185" y="820" width="100" height="90" as="geometry" />
        </mxCell>
        <mxCell id="-ROIpDWnLUawv1nbcp3--73" value="Withdraw money" style="shape=folder;fontStyle=1;spacingTop=10;tabWidth=40;tabHeight=14;tabPosition=left;html=1;whiteSpace=wrap;" vertex="1" parent="1">
          <mxGeometry x="-45" y="820" width="100" height="90" as="geometry" />
        </mxCell>
        <mxCell id="-ROIpDWnLUawv1nbcp3--74" value="Verification" style="shape=folder;fontStyle=1;spacingTop=10;tabWidth=40;tabHeight=14;tabPosition=left;html=1;whiteSpace=wrap;" vertex="1" parent="1">
          <mxGeometry x="-185" y="960" width="130" height="80" as="geometry" />
        </mxCell>
        <mxCell id="-ROIpDWnLUawv1nbcp3--77" value="" style="shape=folder;fontStyle=1;spacingTop=10;tabWidth=40;tabHeight=14;tabPosition=left;html=1;whiteSpace=wrap;" vertex="1" parent="1">
          <mxGeometry x="260" y="800" width="205" height="210" as="geometry" />
        </mxCell>
        <mxCell id="-ROIpDWnLUawv1nbcp3--78" value="Shoppping" style="html=1;whiteSpace=wrap;" vertex="1" parent="1">
          <mxGeometry x="260" y="770" width="110" height="50" as="geometry" />
        </mxCell>
        <mxCell id="-ROIpDWnLUawv1nbcp3--79" value="QR scan" style="shape=folder;fontStyle=1;spacingTop=10;tabWidth=40;tabHeight=14;tabPosition=left;html=1;whiteSpace=wrap;" vertex="1" parent="1">
          <mxGeometry x="280" y="841" width="114" height="59" as="geometry" />
        </mxCell>
        <mxCell id="-ROIpDWnLUawv1nbcp3--80" value="Live chat" style="shape=folder;fontStyle=1;spacingTop=10;tabWidth=40;tabHeight=14;tabPosition=left;html=1;whiteSpace=wrap;" vertex="1" parent="1">
          <mxGeometry x="580" y="1040" width="230" height="180" as="geometry" />
        </mxCell>
        <mxCell id="-ROIpDWnLUawv1nbcp3--90" value="" style="shape=folder;fontStyle=1;spacingTop=10;tabWidth=40;tabHeight=14;tabPosition=left;html=1;whiteSpace=wrap;" vertex="1" parent="1">
          <mxGeometry x="-179" y="1290" width="189" height="110" as="geometry" />
        </mxCell>
        <mxCell id="-ROIpDWnLUawv1nbcp3--92" value="Accounts managment" style="html=1;whiteSpace=wrap;" vertex="1" parent="1">
          <mxGeometry x="-179" y="1260" width="110" height="50" as="geometry" />
        </mxCell>
        <mxCell id="-ROIpDWnLUawv1nbcp3--96" value="Utilities managment" style="shape=folder;fontStyle=1;spacingTop=10;tabWidth=40;tabHeight=14;tabPosition=left;html=1;whiteSpace=wrap;" vertex="1" parent="1">
          <mxGeometry x="260" y="1050" width="240" height="170" as="geometry" />
        </mxCell>
        <mxCell id="-ROIpDWnLUawv1nbcp3--97" value="" style="shape=folder;fontStyle=1;spacingTop=10;tabWidth=40;tabHeight=14;tabPosition=left;html=1;whiteSpace=wrap;" vertex="1" parent="1">
          <mxGeometry x="1100" y="805" width="210" height="200" as="geometry" />
        </mxCell>
        <mxCell id="-ROIpDWnLUawv1nbcp3--98" value="External systems" style="html=1;whiteSpace=wrap;" vertex="1" parent="1">
          <mxGeometry x="1100" y="770" width="110" height="50" as="geometry" />
        </mxCell>
        <mxCell id="-ROIpDWnLUawv1nbcp3--99" value="Payments" style="shape=folder;fontStyle=1;spacingTop=10;tabWidth=40;tabHeight=14;tabPosition=left;html=1;whiteSpace=wrap;" vertex="1" parent="1">
          <mxGeometry x="1110" y="830" width="100" height="50" as="geometry" />
        </mxCell>
        <mxCell id="-ROIpDWnLUawv1nbcp3--100" value="Notifications" style="shape=folder;fontStyle=1;spacingTop=10;tabWidth=40;tabHeight=14;tabPosition=left;html=1;whiteSpace=wrap;" vertex="1" parent="1">
          <mxGeometry x="1110" y="910" width="100" height="60" as="geometry" />
        </mxCell>
        <mxCell id="-ROIpDWnLUawv1nbcp3--101" value="Secured connection" style="shape=folder;fontStyle=1;spacingTop=10;tabWidth=40;tabHeight=14;tabPosition=left;html=1;whiteSpace=wrap;" vertex="1" parent="1">
          <mxGeometry x="1220" y="870" width="80" height="60" as="geometry" />
        </mxCell>
        <mxCell id="-ROIpDWnLUawv1nbcp3--102" value="Notifications" style="shape=folder;fontStyle=1;spacingTop=10;tabWidth=40;tabHeight=14;tabPosition=left;html=1;whiteSpace=wrap;" vertex="1" parent="1">
          <mxGeometry x="590" y="1280" width="200" height="160" as="geometry" />
        </mxCell>
        <mxCell id="-ROIpDWnLUawv1nbcp3--104" value="Sessions" style="shape=folder;fontStyle=1;spacingTop=10;tabWidth=40;tabHeight=14;tabPosition=left;html=1;whiteSpace=wrap;" vertex="1" parent="1">
          <mxGeometry x="1090" y="660" width="70" height="50" as="geometry" />
        </mxCell>
        <mxCell id="-ROIpDWnLUawv1nbcp3--105" value="" style="shape=folder;fontStyle=1;spacingTop=10;tabWidth=40;tabHeight=14;tabPosition=left;html=1;whiteSpace=wrap;" vertex="1" parent="1">
          <mxGeometry x="1460" y="450" width="280" height="270" as="geometry" />
        </mxCell>
        <mxCell id="-ROIpDWnLUawv1nbcp3--106" value="Data" style="html=1;whiteSpace=wrap;" vertex="1" parent="1">
          <mxGeometry x="1460" y="420" width="110" height="50" as="geometry" />
        </mxCell>
        <mxCell id="-ROIpDWnLUawv1nbcp3--107" value="" style="shape=folder;fontStyle=1;spacingTop=10;tabWidth=40;tabHeight=14;tabPosition=left;html=1;whiteSpace=wrap;" vertex="1" parent="1">
          <mxGeometry x="1480" y="791" width="280" height="179" as="geometry" />
        </mxCell>
        <mxCell id="-ROIpDWnLUawv1nbcp3--110" value="Security" style="html=1;whiteSpace=wrap;" vertex="1" parent="1">
          <mxGeometry x="1480" y="760" width="110" height="50" as="geometry" />
        </mxCell>
        <mxCell id="-ROIpDWnLUawv1nbcp3--111" value="Password hashing" style="shape=folder;fontStyle=1;spacingTop=10;tabWidth=40;tabHeight=14;tabPosition=left;html=1;whiteSpace=wrap;" vertex="1" parent="1">
          <mxGeometry x="1500" y="820" width="70" height="50" as="geometry" />
        </mxCell>
        <mxCell id="-ROIpDWnLUawv1nbcp3--112" value="User info crypting" style="shape=folder;fontStyle=1;spacingTop=10;tabWidth=40;tabHeight=14;tabPosition=left;html=1;whiteSpace=wrap;" vertex="1" parent="1">
          <mxGeometry x="1500" y="890" width="90" height="60" as="geometry" />
        </mxCell>
        <mxCell id="-ROIpDWnLUawv1nbcp3--114" value="Storing" style="shape=folder;fontStyle=1;spacingTop=10;tabWidth=40;tabHeight=14;tabPosition=left;html=1;whiteSpace=wrap;" vertex="1" parent="1">
          <mxGeometry x="1480" y="530" width="70" height="50" as="geometry" />
        </mxCell>
        <mxCell id="-ROIpDWnLUawv1nbcp3--115" value="Extracting" style="shape=folder;fontStyle=1;spacingTop=10;tabWidth=40;tabHeight=14;tabPosition=left;html=1;whiteSpace=wrap;" vertex="1" parent="1">
          <mxGeometry x="1590" y="530" width="70" height="50" as="geometry" />
        </mxCell>
        <mxCell id="-ROIpDWnLUawv1nbcp3--116" value="Queries executor" style="shape=folder;fontStyle=1;spacingTop=10;tabWidth=40;tabHeight=14;tabPosition=left;html=1;whiteSpace=wrap;" vertex="1" parent="1">
          <mxGeometry x="1520" y="615" width="140" height="70" as="geometry" />
        </mxCell>
      </root>
    </mxGraphModel>
  </diagram>
</mxfile>
